STARTFONT 2.1
FONT -DEC-Terminal-Medium-R-Normal--28-200-100-100-C-160-ISO8859-15
SIZE 20 100 100
FONTBOUNDINGBOX 16 29 0 -5

STARTPROPERTIES 24
FOUNDRY "DEC"
FAMILY_NAME "Terminal"
WEIGHT_NAME "Medium"
SLANT "R"
SETWIDTH_NAME "Normal"
ADD_STYLE_NAME ""
PIXEL_SIZE 28
POINT_SIZE 200
RESOLUTION_X 100
RESOLUTION_Y 100
SPACING "C"
AVERAGE_WIDTH 160
CHARSET_REGISTRY "ISO8859"
CHARSET_ENCODING "15"
CAP_HEIGHT 18
X_HEIGHT 13
COPYRIGHT "Copyright (c) 1991 Digital Equipment Corporation. All Rights Reserved."
_DEC_PRODUCTINFO "DECterm Fonts V2.2, 11-Nov-1991"
FULL_NAME "Terminal"
WEIGHT 10
QUAD_WIDTH 16
DEFAULT_CHAR 159
FONT_DESCENT 6
FONT_ASCENT 24
ENDPROPERTIES

CHARS 195

STARTCHAR space
ENCODING 32
SWIDTH 570 0
DWIDTH 16 0
BBX 1 1 0 0
BITMAP
00
ENDCHAR

STARTCHAR exclam
ENCODING 33
SWIDTH 570 0
DWIDTH 16 0
BBX 3 18 6 0
BITMAP
E0
E0
E0
E0
E0
E0
E0
E0
E0
E0
E0
E0
E0
00
00
E0
E0
E0
ENDCHAR

STARTCHAR quotedbl
ENCODING 34
SWIDTH 570 0
DWIDTH 16 0
BBX 7 7 4 13
BITMAP
C6
C6
C6
C6
C6
C6
C6
ENDCHAR

STARTCHAR numbersign
ENCODING 35
SWIDTH 570 0
DWIDTH 16 0
BBX 12 18 2 0
BITMAP
30C0
30C0
30C0
30C0
30C0
FFF0
FFF0
30C0
30C0
30C0
30C0
FFF0
FFF0
30C0
30C0
30C0
30C0
30C0
ENDCHAR

STARTCHAR dollar
ENCODING 36
SWIDTH 570 0
DWIDTH 16 0
BBX 12 24 2 -3
BITMAP
0700
0700
0700
0700
3FC0
7FE0
F070
E030
F000
FC00
7F00
3FC0
0FE0
03F0
00F0
0070
C070
E0F0
FFE0
3FC0
0700
0700
0700
0700
ENDCHAR

STARTCHAR percent
ENCODING 37
SWIDTH 570 0
DWIDTH 16 0
BBX 15 18 1 0
BITMAP
3818
7C30
C630
C660
C660
C6C0
7CC0
3980
0180
0300
0338
067C
06C6
0CC6
0CC6
18C6
187C
3038
ENDCHAR

STARTCHAR ampersand
ENCODING 38
SWIDTH 570 0
DWIDTH 16 0
BBX 16 18 0 0
BITMAP
0780
1FC0
3DE0
38E0
38E0
38C0
1D80
1F00
0F3E
3F9C
73D8
E1F8
E0F0
E078
F0FC
FFDE
7F8F
1E07
ENDCHAR

STARTCHAR quoteright
ENCODING 39
SWIDTH 570 0
DWIDTH 16 0
BBX 7 7 4 13
BITMAP
1E
1E
1C
38
30
60
C0
ENDCHAR

STARTCHAR parenleft
ENCODING 40
SWIDTH 570 0
DWIDTH 16 0
BBX 6 20 6 -1
BITMAP
0C
18
30
30
60
60
E0
E0
E0
E0
E0
E0
E0
E0
60
60
30
30
18
0C
ENDCHAR

STARTCHAR parenright
ENCODING 41
SWIDTH 570 0
DWIDTH 16 0
BBX 6 20 4 -1
BITMAP
C0
60
30
30
18
18
1C
1C
1C
1C
1C
1C
1C
1C
18
18
30
30
60
C0
ENDCHAR

STARTCHAR asterisk
ENCODING 42
SWIDTH 570 0
DWIDTH 16 0
BBX 9 10 4 8
BITMAP
4100
6300
3600
1C00
FF80
FF80
1C00
3600
6300
4100
ENDCHAR

STARTCHAR plus
ENCODING 43
SWIDTH 570 0
DWIDTH 16 0
BBX 14 14 1 2
BITMAP
0300
0300
0300
0300
0300
0300
FFFC
FFFC
0300
0300
0300
0300
0300
0300
ENDCHAR

STARTCHAR comma
ENCODING 44
SWIDTH 570 0
DWIDTH 16 0
BBX 5 6 5 -3
BITMAP
38
38
38
30
60
C0
ENDCHAR

STARTCHAR minus
ENCODING 45
SWIDTH 570 0
DWIDTH 16 0
BBX 11 2 3 8
BITMAP
FFE0
FFE0
ENDCHAR

STARTCHAR period
ENCODING 46
SWIDTH 570 0
DWIDTH 16 0
BBX 3 3 6 0
BITMAP
E0
E0
E0
ENDCHAR

STARTCHAR slash
ENCODING 47
SWIDTH 570 0
DWIDTH 16 0
BBX 10 20 2 -1
BITMAP
00C0
00C0
0180
0180
0180
0300
0300
0600
0600
0C00
0C00
1800
1800
3000
3000
6000
6000
6000
C000
C000
ENDCHAR

STARTCHAR zero
ENCODING 48
SWIDTH 570 0
DWIDTH 16 0
BBX 12 18 2 0
BITMAP
0F00
1F80
30C0
70E0
6060
E070
E070
E070
E070
E070
E070
E070
E070
6060
70E0
30C0
1F80
0F00
ENDCHAR

STARTCHAR one
ENCODING 49
SWIDTH 570 0
DWIDTH 16 0
BBX 11 18 3 0
BITMAP
0E00
1E00
7E00
EE00
CE00
0E00
0E00
0E00
0E00
0E00
0E00
0E00
0E00
0E00
0E00
0E00
FFE0
FFE0
ENDCHAR

STARTCHAR two
ENCODING 50
SWIDTH 570 0
DWIDTH 16 0
BBX 12 18 2 0
BITMAP
1F80
7FE0
F0F0
E070
E070
0070
00E0
01E0
03C0
0780
0F00
1E00
3C00
7800
7030
E070
FFF0
FFF0
ENDCHAR

STARTCHAR three
ENCODING 51
SWIDTH 570 0
DWIDTH 16 0
BBX 12 18 2 0
BITMAP
1F80
7FC0
F1E0
E0E0
C0E0
00E0
01C0
1F80
1FC0
01E0
00F0
0070
0070
C070
E0F0
F1E0
7FC0
1F00
ENDCHAR

STARTCHAR four
ENCODING 52
SWIDTH 570 0
DWIDTH 16 0
BBX 13 18 1 0
BITMAP
00E0
01E0
03E0
07E0
06E0
0CE0
1CE0
18E0
30E0
70E0
60E0
FFF8
FFF8
00E0
00E0
00E0
01F0
01F0
ENDCHAR

STARTCHAR five
ENCODING 53
SWIDTH 570 0
DWIDTH 16 0
BBX 12 18 2 0
BITMAP
FFE0
FFE0
E060
E000
E000
E000
EF80
FFE0
F1E0
E0F0
0070
0070
0070
0070
E0E0
F1E0
7FC0
3F00
ENDCHAR

STARTCHAR six
ENCODING 54
SWIDTH 570 0
DWIDTH 16 0
BBX 12 18 2 0
BITMAP
0780
1FE0
38E0
7060
7000
E000
E000
E780
FFE0
F8E0
F070
E070
E070
E070
6070
70E0
3FE0
0F80
ENDCHAR

STARTCHAR seven
ENCODING 55
SWIDTH 570 0
DWIDTH 16 0
BBX 11 18 3 0
BITMAP
FFE0
FFE0
C0E0
C1C0
01C0
0380
0380
0700
0F00
0E00
1C00
1C00
3800
3800
7000
7000
7000
7000
ENDCHAR

STARTCHAR eight
ENCODING 56
SWIDTH 570 0
DWIDTH 16 0
BBX 12 18 2 0
BITMAP
1F80
7FE0
F0F0
E070
E070
E070
70E0
3FC0
3FC0
70E0
E070
E070
E070
E070
E070
70E0
7FE0
1F80
ENDCHAR

STARTCHAR nine
ENCODING 57
SWIDTH 570 0
DWIDTH 16 0
BBX 12 18 2 0
BITMAP
1F80
7FC0
70E0
E060
E070
E070
E070
E0F0
71F0
7F70
3F70
0070
0070
0070
E0E0
F1E0
7FC0
1F00
ENDCHAR

STARTCHAR colon
ENCODING 58
SWIDTH 570 0
DWIDTH 16 0
BBX 3 12 6 0
BITMAP
E0
E0
E0
00
00
00
00
00
00
E0
E0
E0
ENDCHAR

STARTCHAR semicolon
ENCODING 59
SWIDTH 570 0
DWIDTH 16 0
BBX 5 15 5 -3
BITMAP
38
38
38
00
00
00
00
00
00
38
38
38
30
60
C0
ENDCHAR

STARTCHAR less
ENCODING 60
SWIDTH 570 0
DWIDTH 16 0
BBX 10 16 5 1
BITMAP
01C0
0380
0700
0E00
1C00
3800
7000
E000
E000
7000
3800
1C00
0E00
0700
0380
01C0
ENDCHAR

STARTCHAR equal
ENCODING 61
SWIDTH 570 0
DWIDTH 16 0
BBX 11 8 3 5
BITMAP
FFE0
FFE0
0000
0000
0000
0000
FFE0
FFE0
ENDCHAR

STARTCHAR greater
ENCODING 62
SWIDTH 570 0
DWIDTH 16 0
BBX 10 16 2 1
BITMAP
E000
7000
3800
1C00
0E00
0700
0380
01C0
01C0
0380
0700
0E00
1C00
3800
7000
E000
ENDCHAR

STARTCHAR question
ENCODING 63
SWIDTH 570 0
DWIDTH 16 0
BBX 12 18 2 0
BITMAP
1F80
7FE0
F0E0
E070
E070
0070
01E0
07C0
0F00
1E00
1C00
1C00
1C00
0000
0000
1C00
1C00
1C00
ENDCHAR

STARTCHAR at
ENCODING 64
SWIDTH 570 0
DWIDTH 16 0
BBX 13 18 2 0
BITMAP
0FC0
3FE0
78F0
7070
F070
E3F0
E7F0
EE70
EE70
EE70
E7F8
E3D8
E000
F000
7038
7878
3FF0
0FC0
ENDCHAR

STARTCHAR A
ENCODING 65
SWIDTH 570 0
DWIDTH 16 0
BBX 16 18 0 0
BITMAP
0180
0180
03C0
03C0
07E0
07E0
0660
0E70
0E70
0E70
1C38
1FF8
1FF8
381C
381C
781E
700E
F00F
ENDCHAR

STARTCHAR B
ENCODING 66
SWIDTH 570 0
DWIDTH 16 0
BBX 13 18 2 0
BITMAP
FFC0
FFE0
70F0
7070
7070
7070
7070
70E0
7FC0
7FF0
7078
7038
7038
7038
7038
7078
FFF0
FFC0
ENDCHAR

STARTCHAR C
ENCODING 67
SWIDTH 570 0
DWIDTH 16 0
BBX 12 18 2 0
BITMAP
0FE0
3FF0
7870
7030
E000
E000
E000
E000
E000
E000
E000
E000
E000
E000
7030
7870
3FF0
0FC0
ENDCHAR

STARTCHAR D
ENCODING 68
SWIDTH 570 0
DWIDTH 16 0
BBX 14 18 1 0
BITMAP
FFC0
FFF0
7078
7038
701C
701C
701C
701C
701C
701C
701C
701C
701C
701C
7038
7078
FFF0
FFC0
ENDCHAR

STARTCHAR E
ENCODING 69
SWIDTH 570 0
DWIDTH 16 0
BBX 12 18 2 0
BITMAP
FFF0
FFF0
3830
3810
3800
3800
3800
3FE0
3FE0
3800
3800
3800
3800
3810
3810
3830
FFF0
FFF0
ENDCHAR

STARTCHAR F
ENCODING 70
SWIDTH 570 0
DWIDTH 16 0
BBX 12 18 2 0
BITMAP
FFF0
FFF0
3830
3810
3800
3800
3800
3800
3FE0
3FE0
3800
3800
3800
3800
3800
3800
FF00
FF00
ENDCHAR

STARTCHAR G
ENCODING 71
SWIDTH 570 0
DWIDTH 16 0
BBX 13 18 2 0
BITMAP
0FC0
3FF0
7870
7038
E038
E000
E000
E000
E000
E3F8
E3F8
E038
E038
E038
7078
78F8
3FD8
0F98
ENDCHAR

STARTCHAR H
ENCODING 72
SWIDTH 570 0
DWIDTH 16 0
BBX 14 18 1 0
BITMAP
F87C
F87C
7038
7038
7038
7038
7038
7FF8
7FF8
7038
7038
7038
7038
7038
7038
7038
F87C
F87C
ENDCHAR

STARTCHAR I
ENCODING 73
SWIDTH 570 0
DWIDTH 16 0
BBX 9 18 3 0
BITMAP
FF80
FF80
1C00
1C00
1C00
1C00
1C00
1C00
1C00
1C00
1C00
1C00
1C00
1C00
1C00
1C00
FF80
FF80
ENDCHAR

STARTCHAR J
ENCODING 74
SWIDTH 570 0
DWIDTH 16 0
BBX 12 18 1 0
BITMAP
1FF0
1FF0
0070
0070
0070
0070
0070
0070
0070
0070
0070
0070
C070
C070
E070
F0F0
7FE0
3F80
ENDCHAR

STARTCHAR K
ENCODING 75
SWIDTH 570 0
DWIDTH 16 0
BBX 14 18 1 0
BITMAP
F878
F870
70E0
71C0
7380
7700
7E00
7C00
7800
7C00
7E00
7700
7780
73C0
71E0
70F0
F878
F87C
ENDCHAR

STARTCHAR L
ENCODING 76
SWIDTH 570 0
DWIDTH 16 0
BBX 13 18 2 0
BITMAP
FE00
FE00
3800
3800
3800
3800
3800
3800
3800
3800
3800
3800
3800
3808
3808
3818
FFF8
FFF8
ENDCHAR

STARTCHAR M
ENCODING 77
SWIDTH 570 0
DWIDTH 16 0
BBX 15 18 1 0
BITMAP
F01E
701C
783C
783C
783C
7C7C
7C7C
7C7C
76DC
76DC
77DC
739C
739C
711C
711C
701C
701C
F01E
ENDCHAR

STARTCHAR N
ENCODING 78
SWIDTH 570 0
DWIDTH 16 0
BBX 15 18 1 0
BITMAP
F01E
F01E
701C
781C
781C
7C1C
7E1C
7F1C
779C
73DC
71FC
70FC
707C
703C
703C
701C
F01C
F01C
ENDCHAR

STARTCHAR O
ENCODING 79
SWIDTH 570 0
DWIDTH 16 0
BBX 14 18 1 0
BITMAP
0FC0
3FF0
7878
7038
E01C
E01C
E01C
E01C
E01C
E01C
E01C
E01C
E01C
E01C
7038
7878
3FF0
0FC0
ENDCHAR

STARTCHAR P
ENCODING 80
SWIDTH 570 0
DWIDTH 16 0
BBX 13 18 2 0
BITMAP
FFC0
FFF0
7070
7038
7038
7038
7038
7038
7030
7070
7FE0
7F80
7000
7000
7000
7000
F800
F800
ENDCHAR

STARTCHAR Q
ENCODING 81
SWIDTH 570 0
DWIDTH 16 0
BBX 14 19 1 -1
BITMAP
0FC0
3FF0
7878
7038
E01C
E01C
E01C
E01C
E01C
E01C
E01C
E01C
E01C
E01C
71D8
78F8
3FF0
0FF8
001C
ENDCHAR

STARTCHAR R
ENCODING 82
SWIDTH 570 0
DWIDTH 16 0
BBX 14 18 2 0
BITMAP
FFC0
FFE0
70F0
7070
7070
7070
7070
70E0
7FC0
7F00
7380
71C0
71C0
70E0
7070
7070
F838
F83C
ENDCHAR

STARTCHAR S
ENCODING 83
SWIDTH 570 0
DWIDTH 16 0
BBX 12 18 2 0
BITMAP
1F80
7FE0
F0F0
E070
E000
F000
7C00
7F00
3FC0
0FE0
03F0
00F0
0070
0070
E070
F0E0
7FE0
1F80
ENDCHAR

STARTCHAR T
ENCODING 84
SWIDTH 570 0
DWIDTH 16 0
BBX 13 18 1 0
BITMAP
FFF8
FFF8
C718
C718
0700
0700
0700
0700
0700
0700
0700
0700
0700
0700
0700
0700
1FC0
1FC0
ENDCHAR

STARTCHAR U
ENCODING 85
SWIDTH 570 0
DWIDTH 16 0
BBX 14 18 1 0
BITMAP
F87C
F87C
7038
7038
7038
7038
7038
7038
7038
7038
7038
7038
7038
7038
7038
3870
3FF0
1FE0
ENDCHAR

STARTCHAR V
ENCODING 86
SWIDTH 570 0
DWIDTH 16 0
BBX 16 18 0 0
BITMAP
F00F
700E
700E
381C
381C
381C
381C
1C38
1C38
1C38
1C38
0E70
0E70
0E70
0660
07E0
03C0
03C0
ENDCHAR

STARTCHAR W
ENCODING 87
SWIDTH 570 0
DWIDTH 16 0
BBX 15 18 1 0
BITMAP
F01E
F01E
701C
701C
701C
701C
3118
3118
3BB8
3BB8
3BB8
3BB8
1AB0
1EF0
1EF0
0C60
0C60
0C60
ENDCHAR

STARTCHAR X
ENCODING 88
SWIDTH 570 0
DWIDTH 16 0
BBX 15 18 1 0
BITMAP
F81E
781C
3838
1C70
1C60
0EC0
0FC0
0780
0780
0380
07C0
07C0
0EE0
1C70
1C70
3838
783C
F03E
ENDCHAR

STARTCHAR Y
ENCODING 89
SWIDTH 570 0
DWIDTH 16 0
BBX 15 18 1 0
BITMAP
F01E
701C
3838
3830
1C70
1C60
0EE0
0EC0
07C0
0780
0380
0380
0380
0380
0380
0380
0380
07C0
ENDCHAR

STARTCHAR Z
ENCODING 90
SWIDTH 570 0
DWIDTH 16 0
BBX 12 18 2 0
BITMAP
7FF0
7FF0
6070
40F0
00E0
01E0
03C0
0780
0F00
0E00
1C00
3C00
3800
7000
F010
E030
FFF0
FFF0
ENDCHAR

STARTCHAR bracketleft
ENCODING 91
SWIDTH 570 0
DWIDTH 16 0
BBX 7 21 6 -2
BITMAP
FE
FE
E0
E0
E0
E0
E0
E0
E0
E0
E0
E0
E0
E0
E0
E0
E0
E0
E0
FE
FE
ENDCHAR

STARTCHAR backslash
ENCODING 92
SWIDTH 570 0
DWIDTH 16 0
BBX 10 20 4 -1
BITMAP
C000
C000
6000
6000
6000
3000
3000
1800
1800
0C00
0C00
0600
0600
0300
0300
0180
0180
00C0
00C0
00C0
ENDCHAR

STARTCHAR bracketright
ENCODING 93
SWIDTH 570 0
DWIDTH 16 0
BBX 7 21 3 -2
BITMAP
FE
FE
0E
0E
0E
0E
0E
0E
0E
0E
0E
0E
0E
0E
0E
0E
0E
0E
0E
FE
FE
ENDCHAR

STARTCHAR asciicircum
ENCODING 94
SWIDTH 570 0
DWIDTH 16 0
BBX 10 5 3 8
BITMAP
0C00
1E00
3F00
7380
E1C0
ENDCHAR

STARTCHAR underscore
ENCODING 95
SWIDTH 570 0
DWIDTH 16 0
BBX 16 2 0 0
BITMAP
FFFF
FFFF
ENDCHAR

STARTCHAR quoteleft
ENCODING 96
SWIDTH 570 0
DWIDTH 16 0
BBX 7 7 5 13
BITMAP
F0
F0
70
38
18
0C
06
ENDCHAR

STARTCHAR a
ENCODING 97
SWIDTH 570 0
DWIDTH 16 0
BBX 14 13 1 0
BITMAP
1FC0
3FF0
7870
0038
0038
1FF8
7FF8
F038
E038
E078
F0F8
7FDC
3F1C
ENDCHAR

STARTCHAR b
ENCODING 98
SWIDTH 570 0
DWIDTH 16 0
BBX 15 19 0 0
BITMAP
F800
F800
3800
3800
3800
3800
3BE0
3FF8
3C3C
381C
380E
380E
380E
380E
380E
381C
3C3C
3FF8
3BE0
ENDCHAR

STARTCHAR c
ENCODING 99
SWIDTH 570 0
DWIDTH 16 0
BBX 12 13 2 0
BITMAP
0FE0
3FF0
7870
7030
E000
E000
E000
E000
E000
7030
7870
3FF0
0FC0
ENDCHAR

STARTCHAR d
ENCODING 100
SWIDTH 570 0
DWIDTH 16 0
BBX 14 19 1 0
BITMAP
00F8
00F8
0038
0038
0038
0038
0FB8
3FF8
7878
7038
E038
E038
E038
E038
E038
7038
7878
3FFC
0FBC
ENDCHAR

STARTCHAR e
ENCODING 101
SWIDTH 570 0
DWIDTH 16 0
BBX 12 13 2 0
BITMAP
0F80
3FE0
70F0
E070
E070
FFF0
FFE0
E000
E000
F030
7870
7FE0
1F80
ENDCHAR

STARTCHAR f
ENCODING 102
SWIDTH 570 0
DWIDTH 16 0
BBX 14 19 1 0
BITMAP
01FC
07FC
0F00
0E00
0E00
0E00
0E00
FFF8
FFF8
0E00
0E00
0E00
0E00
0E00
0E00
0E00
0E00
7FE0
7FE0
ENDCHAR

STARTCHAR g
ENCODING 103
SWIDTH 570 0
DWIDTH 16 0
BBX 15 17 1 -4
BITMAP
0FC6
3FFE
7878
7038
7038
7878
3FF0
3FC0
6000
7FE0
3FF8
703C
E01C
E01C
F03C
7FF8
1FE0
ENDCHAR

STARTCHAR h
ENCODING 104
SWIDTH 570 0
DWIDTH 16 0
BBX 15 19 0 0
BITMAP
F800
F800
3800
3800
3800
3800
3BF0
3FF8
3C3C
381C
381C
381C
381C
381C
381C
381C
381C
7C3E
7C3E
ENDCHAR

STARTCHAR i
ENCODING 105
SWIDTH 570 0
DWIDTH 16 0
BBX 12 18 2 0
BITMAP
0700
0700
0700
0000
0000
0700
FF00
FF00
0700
0700
0700
0700
0700
0700
0700
0700
FFF0
FFF0
ENDCHAR

STARTCHAR j
ENCODING 106
SWIDTH 570 0
DWIDTH 16 0
BBX 11 23 0 -5
BITMAP
00E0
00E0
00E0
0000
0000
00E0
3FE0
3FE0
00E0
00E0
00E0
00E0
00E0
00E0
00E0
00E0
00E0
00E0
00E0
E0E0
F1E0
7FC0
3F00
ENDCHAR

STARTCHAR k
ENCODING 107
SWIDTH 570 0
DWIDTH 16 0
BBX 15 19 0 0
BITMAP
F800
F800
3800
3800
3800
3800
383C
3870
38E0
39C0
3B80
3F00
3F00
3F80
3BC0
39E0
38F0
7878
783E
ENDCHAR

STARTCHAR l
ENCODING 108
SWIDTH 570 0
DWIDTH 16 0
BBX 13 19 2 0
BITMAP
7F00
7F00
0700
0700
0700
0700
0700
0700
0700
0700
0700
0700
0700
0700
0700
0700
0700
FFF8
FFF8
ENDCHAR

STARTCHAR m
ENCODING 109
SWIDTH 570 0
DWIDTH 16 0
BBX 16 13 0 0
BITMAP
6738
FFFC
F9CE
718E
718E
718E
718E
718E
718E
718E
718E
F18F
F18F
ENDCHAR

STARTCHAR n
ENCODING 110
SWIDTH 570 0
DWIDTH 16 0
BBX 14 13 1 0
BITMAP
77E0
FFF0
F878
7038
7038
7038
7038
7038
7038
7038
7038
F83C
F83C
ENDCHAR

STARTCHAR o
ENCODING 111
SWIDTH 570 0
DWIDTH 16 0
BBX 14 13 1 0
BITMAP
0FC0
3FF0
7878
7038
E01C
E01C
E01C
E01C
E01C
7038
7878
3FF0
0FC0
ENDCHAR

STARTCHAR p
ENCODING 112
SWIDTH 570 0
DWIDTH 16 0
BBX 14 18 1 -5
BITMAP
77C0
FFF0
F878
7038
701C
701C
701C
701C
701C
7038
7878
7FF0
77E0
7000
7000
7000
F800
F800
ENDCHAR

STARTCHAR q
ENCODING 113
SWIDTH 570 0
DWIDTH 16 0
BBX 14 18 1 -5
BITMAP
0FBC
3FFC
7878
7038
E038
E038
E038
E038
E038
7038
7878
3FF8
0FB8
0038
0038
0038
003C
003C
ENDCHAR

STARTCHAR r
ENCODING 114
SWIDTH 570 0
DWIDTH 16 0
BBX 13 13 2 0
BITMAP
1CF0
FDF8
FF38
1E18
1C00
1C00
1C00
1C00
1C00
1C00
1C00
FFC0
FFC0
ENDCHAR

STARTCHAR s
ENCODING 115
SWIDTH 570 0
DWIDTH 16 0
BBX 12 13 2 0
BITMAP
1FC0
7FE0
F0E0
E060
F000
FFC0
7FE0
3FF0
00F0
C070
E0E0
FFE0
7F80
ENDCHAR

STARTCHAR t
ENCODING 116
SWIDTH 570 0
DWIDTH 16 0
BBX 13 17 1 0
BITMAP
0E00
0E00
0E00
0E00
FFF8
FFF8
0E00
0E00
0E00
0E00
0E00
0E00
0E00
0E08
0718
07F0
03E0
ENDCHAR

STARTCHAR u
ENCODING 117
SWIDTH 570 0
DWIDTH 16 0
BBX 14 13 1 0
BITMAP
F078
F078
7038
7038
7038
7038
7038
7038
7038
7038
7878
3FFC
1FBC
ENDCHAR

STARTCHAR v
ENCODING 118
SWIDTH 570 0
DWIDTH 16 0
BBX 16 13 0 0
BITMAP
F007
700E
780E
381C
3C1C
1C38
1E38
0E70
0F70
07E0
07E0
03C0
03C0
ENDCHAR

STARTCHAR w
ENCODING 119
SWIDTH 570 0
DWIDTH 16 0
BBX 16 13 0 0
BITMAP
E007
E007
718E
718E
718E
399C
399C
3BDC
1BD8
1FF8
1E78
0C30
0C30
ENDCHAR

STARTCHAR x
ENCODING 120
SWIDTH 570 0
DWIDTH 16 0
BBX 15 13 0 0
BITMAP
F01E
783C
3C78
1EF0
0FE0
07C0
0380
07C0
0FE0
1EF0
3C78
783C
F01E
ENDCHAR

STARTCHAR y
ENCODING 121
SWIDTH 570 0
DWIDTH 16 0
BBX 16 17 0 -4
BITMAP
F007
780F
380E
1C1C
1C1C
0E38
0E38
0670
0770
03E0
03E0
01C0
0380
0380
0700
0E00
0E00
ENDCHAR

STARTCHAR z
ENCODING 122
SWIDTH 570 0
DWIDTH 16 0
BBX 12 13 2 0
BITMAP
FFF0
FFF0
C0F0
C1E0
03C0
0780
0F00
1E00
3C00
7830
F030
FFF0
FFF0
ENDCHAR

STARTCHAR braceleft
ENCODING 123
SWIDTH 570 0
DWIDTH 16 0
BBX 8 20 5 -1
BITMAP
0F
1F
3C
38
38
38
38
38
1C
F0
F0
1C
38
38
38
38
38
3C
1F
0F
ENDCHAR

STARTCHAR bar
ENCODING 124
SWIDTH 570 0
DWIDTH 16 0
BBX 2 20 7 -1
BITMAP
C0
C0
C0
C0
C0
C0
C0
C0
C0
C0
C0
C0
C0
C0
C0
C0
C0
C0
C0
C0
ENDCHAR

STARTCHAR braceright
ENCODING 125
SWIDTH 570 0
DWIDTH 16 0
BBX 8 20 3 -1
BITMAP
F0
F8
1C
1C
1C
1C
1C
1C
38
0F
0F
38
1C
1C
1C
1C
1C
1C
F8
F0
ENDCHAR

STARTCHAR asciitilde
ENCODING 126
SWIDTH 570 0
DWIDTH 16 0
BBX 9 5 3 8
BITMAP
7080
F880
FF80
8F80
8700
ENDCHAR

STARTCHAR OE
ENCODING 128
SWIDTH 570 0
DWIDTH 16 0
BBX 16 18 0 0
BITMAP
0FFF
3FFF
78E1
70E0
E0E0
E0E0
E0E0
E0FE
E0FE
E0E0
E0E0
E0E0
E0E0
E0E0
70E0
78E1
3FFF
0FFF
ENDCHAR

STARTCHAR oe
ENCODING 129
SWIDTH 570 0
DWIDTH 16 0
BBX 16 13 0 0
BITMAP
0E3C
3FFE
73E7
61C3
E1C3
E1FF
E1FE
E1C0
E1C0
61C0
73E3
3FFF
0E3E
ENDCHAR

STARTCHAR Ydieresis
ENCODING 130
SWIDTH 570 0
DWIDTH 16 0
BBX 15 22 1 0
BITMAP
0C60
0C60
0C60
0000
F01E
701C
3838
3830
1C70
1C60
0EE0
0EC0
07C0
0780
0380
0380
0380
0380
0380
0380
0380
07C0
ENDCHAR

STARTCHAR Error
ENCODING 159
SWIDTH 570 0
DWIDTH 16 0
BBX 16 28 0 -4
BITMAP
07F0
1FFC
7FFE
7FFE
FC3F
F81F
F81F
F81F
FC00
7C00
7E00
3F00
1F80
0FC0
07C0
07E0
03E0
03E0
03E0
03E0
0000
0000
0000
03E0
03E0
03E0
03E0
03E0
ENDCHAR

STARTCHAR space
ENCODING 160
SWIDTH 570 0
DWIDTH 16 0
BBX 1 1 0 0
BITMAP
00
ENDCHAR

STARTCHAR exclamdown
ENCODING 161
SWIDTH 570 0
DWIDTH 16 0
BBX 3 19 7 -2
BITMAP
E0
E0
E0
00
00
E0
E0
E0
E0
E0
E0
E0
E0
E0
E0
E0
E0
E0
E0
ENDCHAR

STARTCHAR cent
ENCODING 162
SWIDTH 570 0
DWIDTH 16 0
BBX 12 19 2 -2
BITMAP
0300
0300
0300
0FE0
3FF0
7B70
7330
E300
E300
E300
E300
E300
7330
7B70
3FF0
0FE0
0300
0300
0300
ENDCHAR

STARTCHAR sterling
ENCODING 163
SWIDTH 570 0
DWIDTH 16 0
BBX 14 19 1 0
BITMAP
07E0
0FF0
1E38
1C18
1C00
1C00
1C00
1C00
7FC0
7FC0
1C00
1C00
1C00
1C00
1C00
1C0C
3E0C
7FFC
E3F8
ENDCHAR

STARTCHAR currency
ENCODING 164
SWIDTH 570 0
DWIDTH 16 0
BBX 12 12 2 4
BITMAP
C030
EF70
7FE0
30C0
6060
6060
6060
6060
30C0
7FE0
EF70
C030
ENDCHAR

STARTCHAR yen
ENCODING 165
SWIDTH 570 0
DWIDTH 16 0
BBX 15 18 1 0
BITMAP
F01E
701C
3838
3830
1C70
1C60
0EE0
7FFC
7FFC
0380
0380
0380
7FFC
7FFC
0380
0380
0380
07C0
ENDCHAR

STARTCHAR Scaron
ENCODING 166
SWIDTH 570 0
DWIDTH 16 0
BBX 12 23 2 0
BITMAP
30C0
1980
0F00
0600
0000
1F80
7FE0
F0F0
E070
E000
F000
7C00
7F00
3FC0
0FE0
03F0
00F0
0070
0070
E070
F0E0
7FE0
1F80
ENDCHAR

STARTCHAR section
ENCODING 167
SWIDTH 570 0
DWIDTH 16 0
BBX 12 19 2 0
BITMAP
1F00
7FC0
F1E0
E0E0
F000
7C00
3F80
3FC0
70E0
6060
70E0
3FC0
1FE0
01F0
00F0
E070
F0E0
7FC0
1F00
ENDCHAR

STARTCHAR scaron
ENCODING 168
SWIDTH 570 0
DWIDTH 16 0
BBX 12 18 2 0
BITMAP
30C0
1980
0F00
0600
0000
1FC0
7FE0
F0E0
E060
F000
FFC0
7FE0
3FF0
00F0
C070
E0E0
FFE0
7F80
ENDCHAR

STARTCHAR copyright
ENCODING 169
SWIDTH 570 0
DWIDTH 16 0
BBX 15 16 1 1
BITMAP
3FF8
7FFC
F01E
E00E
C3C6
C666
CC66
CC06
CC06
CE06
C7E6
C3C6
E00E
F01E
7FFC
3FF8
ENDCHAR

STARTCHAR ordfeminine
ENCODING 170
SWIDTH 570 0
DWIDTH 16 0
BBX 10 13 3 10
BITMAP
1E00
7F00
6180
0180
1F80
7F80
E180
E180
7FC0
3EC0
0000
FFC0
FFC0
ENDCHAR

STARTCHAR guillemotleft
ENCODING 171
SWIDTH 570 0
DWIDTH 16 0
BBX 13 11 1 2
BITMAP
0738
0E70
1CE0
39C0
7380
E700
7380
39C0
1CE0
0E70
0738
ENDCHAR

STARTCHAR logicalnot
ENCODING 172
SWIDTH 570 0
DWIDTH 16 0
BBX 9 3 4 6
BITMAP
FF80
FF80
0180
ENDCHAR

STARTCHAR hyphen
ENCODING 173
SWIDTH 570 0
DWIDTH 16 0
BBX 7 2 5 8
BITMAP
FE
FE
ENDCHAR

STARTCHAR registered
ENCODING 174
SWIDTH 570 0
DWIDTH 16 0
BBX 15 16 1 1
BITMAP
3FF8
7FFC
F01E
E00E
CFC6
CFE6
CC66
CC66
CFE6
CFC6
CCE6
CC76
E00E
F01E
7FFC
3FF8
ENDCHAR

STARTCHAR macron
ENCODING 175
SWIDTH 570 0
DWIDTH 16 0
BBX 6 2 5 15
BITMAP
FC
FC
ENDCHAR

STARTCHAR degree
ENCODING 176
SWIDTH 570 0
DWIDTH 16 0
BBX 6 5 5 14
BITMAP
78
CC
CC
CC
78
ENDCHAR

STARTCHAR plusminus
ENCODING 177
SWIDTH 570 0
DWIDTH 16 0
BBX 12 16 2 1
BITMAP
0600
0600
0600
0600
0600
FFF0
FFF0
0600
0600
0600
0600
0600
0000
0000
FFF0
FFF0
ENDCHAR

STARTCHAR twosuperior
ENCODING 178
SWIDTH 570 0
DWIDTH 16 0
BBX 8 11 4 10
BITMAP
3C
7E
E3
03
0F
3E
78
E0
C0
FF
FF
ENDCHAR

STARTCHAR threesuperior
ENCODING 179
SWIDTH 570 0
DWIDTH 16 0
BBX 8 11 4 10
BITMAP
3E
7F
C3
03
3E
3E
07
03
C7
FE
7C
ENDCHAR

STARTCHAR Zcaron
ENCODING 180
SWIDTH 570 0
DWIDTH 16 0
BBX 12 23 2 0
BITMAP
30C0
1980
0F00
0600
0000
7FF0
7FF0
6070
40F0
00E0
01E0
03C0
0780
0F00
0E00
1C00
3C00
3800
7000
F010
E030
FFF0
FFF0
ENDCHAR

STARTCHAR mu
ENCODING 181
SWIDTH 570 0
DWIDTH 16 0
BBX 16 14 0 -1
BITMAP
0387
0386
030E
070C
061C
0E18
0C38
1C30
1870
3860
38E4
7FFC
C738
8000
ENDCHAR

STARTCHAR paragraph
ENCODING 182
SWIDTH 570 0
DWIDTH 16 0
BBX 13 22 1 -3
BITMAP
1FF8
7FF8
7F30
FF30
FF30
FF30
FF30
FF30
FF30
7F30
7F30
1F30
0330
0330
0330
0330
0330
0330
0330
0330
0330
0330
ENDCHAR

STARTCHAR periodcentered
ENCODING 183
SWIDTH 570 0
DWIDTH 16 0
BBX 3 3 7 10
BITMAP
E0
E0
E0
ENDCHAR

STARTCHAR zcaron
ENCODING 184
SWIDTH 570 0
DWIDTH 16 0
BBX 12 18 2 0
BITMAP
30C0
1980
0F00
0600
0000
FFF0
FFF0
C0F0
C1E0
03C0
0780
0F00
1E00
3C00
7830
F030
FFF0
FFF0
ENDCHAR

STARTCHAR onesuperior
ENCODING 185
SWIDTH 570 0
DWIDTH 16 0
BBX 6 11 5 10
BITMAP
30
F0
F0
30
30
30
30
30
30
FC
FC
ENDCHAR

STARTCHAR ordmasculine
ENCODING 186
SWIDTH 570 0
DWIDTH 16 0
BBX 10 13 3 10
BITMAP
1E00
7F80
6180
C0C0
C0C0
C0C0
C0C0
E180
7F80
1E00
0000
FFC0
FFC0
ENDCHAR

STARTCHAR guillemotright
ENCODING 187
SWIDTH 570 0
DWIDTH 16 0
BBX 13 11 1 2
BITMAP
E700
7380
39C0
1CE0
0E70
0738
0E70
1CE0
39C0
7380
E700
ENDCHAR

STARTCHAR Ligature_OE
ENCODING 188
SWIDTH 570 0
DWIDTH 16 0
BBX 16 18 0 0
BITMAP
0FFF
3FFF
78E1
70E0
E0E0
E0E0
E0E0
E0FE
E0FE
E0E0
E0E0
E0E0
E0E0
E0E0
70E0
78E1
3FFF
0FFF
ENDCHAR

STARTCHAR Ligature_oe
ENCODING 189
SWIDTH 570 0
DWIDTH 16 0
BBX 16 13 0 0
BITMAP
0E3C
3FFE
73E7
61C3
E1C3
E1FF
E1FE
E1C0
E1C0
61C0
73E3
3FFF
0E3E
ENDCHAR

STARTCHAR Ydiaeresis
ENCODING 190
SWIDTH 570 0
DWIDTH 16 0
BBX 15 23 1 0
BITMAP
0C60
0C60
0C60
0000
0000
F01E
701C
3838
3830
1C70
1C60
0EE0
0EC0
07C0
0780
0380
0380
0380
0380
0380
0380
0380
07C0
ENDCHAR

STARTCHAR questiondown
ENCODING 191
SWIDTH 570 0
DWIDTH 16 0
BBX 12 19 2 -2
BITMAP
0700
0700
0700
0000
0000
0700
0700
0700
0700
1E00
3C00
7800
7000
E000
E070
E070
70F0
3FE0
0F80
ENDCHAR

STARTCHAR Agrave
ENCODING 192
SWIDTH 570 0
DWIDTH 16 0
BBX 16 23 0 0
BITMAP
0E00
0700
0380
0000
0000
0180
0180
03C0
03C0
07E0
07E0
0660
0E70
0E70
0E70
1C38
1FF8
1FF8
381C
381C
781E
700E
F00F
ENDCHAR

STARTCHAR Aacute
ENCODING 193
SWIDTH 570 0
DWIDTH 16 0
BBX 16 23 0 0
BITMAP
0070
00E0
01C0
0000
0000
0180
0180
03C0
03C0
07E0
07E0
0660
0E70
0E70
0E70
1C38
1FF8
1FF8
381C
381C
781E
700E
F00F
ENDCHAR

STARTCHAR Acircumflex
ENCODING 194
SWIDTH 570 0
DWIDTH 16 0
BBX 16 23 0 0
BITMAP
0180
03C0
0660
0C30
0000
0180
0180
03C0
03C0
07E0
07E0
0660
0E70
0E70
0E70
1C38
1FF8
1FF8
381C
381C
781E
700E
F00F
ENDCHAR

STARTCHAR Atilde
ENCODING 195
SWIDTH 570 0
DWIDTH 16 0
BBX 16 23 0 0
BITMAP
0320
07A0
06E0
04C0
0000
0180
0180
03C0
03C0
07E0
07E0
0660
0E70
0E70
0E70
1C38
1FF8
1FF8
381C
381C
781E
700E
F00F
ENDCHAR

STARTCHAR Adieresis
ENCODING 196
SWIDTH 570 0
DWIDTH 16 0
BBX 16 22 0 0
BITMAP
0660
0660
0660
0000
0180
0180
03C0
03C0
07E0
07E0
0660
0E70
0E70
0E70
1C38
1FF8
1FF8
381C
381C
781E
700E
F00F
ENDCHAR

STARTCHAR Aring
ENCODING 197
SWIDTH 570 0
DWIDTH 16 0
BBX 16 23 0 0
BITMAP
03C0
0660
0660
03C0
0000
0180
0180
03C0
03C0
07E0
07E0
0660
0E70
0E70
0E70
1C38
1FF8
1FF8
381C
381C
781E
700E
F00F
ENDCHAR

STARTCHAR AE
ENCODING 198
SWIDTH 570 0
DWIDTH 16 0
BBX 16 18 0 0
BITMAP
01FF
01FF
03E1
03E0
07E0
06E0
06E0
0EFE
0CFE
0CE0
1CE0
1FE0
1FE0
38E0
38E0
70E1
70FF
F0FF
ENDCHAR

STARTCHAR Ccedilla
ENCODING 199
SWIDTH 570 0
DWIDTH 16 0
BBX 12 22 2 -4
BITMAP
0FE0
3FF0
7870
7030
E000
E000
E000
E000
E000
E000
E000
E000
E000
E000
7030
7870
3FF0
0FC0
0300
0300
0300
0E00
ENDCHAR

STARTCHAR Egrave
ENCODING 200
SWIDTH 570 0
DWIDTH 16 0
BBX 12 23 2 0
BITMAP
1C00
0E00
0700
0000
0000
FFF0
FFF0
3830
3810
3800
3800
3800
3FE0
3FE0
3800
3800
3800
3800
3810
3810
3830
FFF0
FFF0
ENDCHAR

STARTCHAR Eacute
ENCODING 201
SWIDTH 570 0
DWIDTH 16 0
BBX 12 23 2 0
BITMAP
01C0
0380
0700
0000
0000
FFF0
FFF0
3830
3810
3800
3800
3800
3FE0
3FE0
3800
3800
3800
3800
3810
3810
3830
FFF0
FFF0
ENDCHAR

STARTCHAR Ecircumflex
ENCODING 202
SWIDTH 570 0
DWIDTH 16 0
BBX 12 23 2 0
BITMAP
0600
0F00
1980
30C0
0000
FFF0
FFF0
3830
3810
3800
3800
3800
3FE0
3FE0
3800
3800
3800
3800
3810
3810
3830
FFF0
FFF0
ENDCHAR

STARTCHAR Edieresis
ENCODING 203
SWIDTH 570 0
DWIDTH 16 0
BBX 12 23 2 0
BITMAP
18C0
18C0
18C0
0000
0000
FFF0
FFF0
3830
3810
3800
3800
3800
3FE0
3FE0
3800
3800
3800
3800
3810
3810
3830
FFF0
FFF0
ENDCHAR

STARTCHAR Igrave
ENCODING 204
SWIDTH 570 0
DWIDTH 16 0
BBX 9 23 3 0
BITMAP
7000
3800
1C00
0000
0000
FF80
FF80
1C00
1C00
1C00
1C00
1C00
1C00
1C00
1C00
1C00
1C00
1C00
1C00
1C00
1C00
FF80
FF80
ENDCHAR

STARTCHAR Iacute
ENCODING 205
SWIDTH 570 0
DWIDTH 16 0
BBX 9 23 3 0
BITMAP
0700
0E00
1C00
0000
0000
FF80
FF80
1C00
1C00
1C00
1C00
1C00
1C00
1C00
1C00
1C00
1C00
1C00
1C00
1C00
1C00
FF80
FF80
ENDCHAR

STARTCHAR Icircumflex
ENCODING 206
SWIDTH 570 0
DWIDTH 16 0
BBX 9 24 3 0
BITMAP
0C00
1E00
3300
6180
0000
0000
FF80
FF80
1C00
1C00
1C00
1C00
1C00
1C00
1C00
1C00
1C00
1C00
1C00
1C00
1C00
1C00
FF80
FF80
ENDCHAR

STARTCHAR Idieresis
ENCODING 207
SWIDTH 570 0
DWIDTH 16 0
BBX 9 23 3 0
BITMAP
6300
6300
6300
0000
0000
FF80
FF80
1C00
1C00
1C00
1C00
1C00
1C00
1C00
1C00
1C00
1C00
1C00
1C00
1C00
1C00
FF80
FF80
ENDCHAR

STARTCHAR Eth
ENCODING 208
SWIDTH 570 0
DWIDTH 16 0
BBX 15 18 0 0
BITMAP
7FE0
7FF8
383C
381C
380E
380E
380E
380E
FF8E
FF8E
380E
380E
380E
380E
381C
383C
7FF8
7FE0
ENDCHAR

STARTCHAR Ntilde
ENCODING 209
SWIDTH 570 0
DWIDTH 16 0
BBX 15 23 1 0
BITMAP
0E20
1F60
1BE0
11C0
0000
F01E
F01E
701C
781C
781C
7C1C
7E1C
7F1C
779C
73DC
71FC
70FC
707C
703C
703C
701C
F01C
F01C
ENDCHAR

STARTCHAR Ograve
ENCODING 210
SWIDTH 570 0
DWIDTH 16 0
BBX 14 23 1 0
BITMAP
0E00
0700
0380
0000
0000
0FC0
3FF0
7878
7038
E01C
E01C
E01C
E01C
E01C
E01C
E01C
E01C
E01C
E01C
7038
7878
3FF0
0FC0
ENDCHAR

STARTCHAR Oacute
ENCODING 211
SWIDTH 570 0
DWIDTH 16 0
BBX 14 23 1 0
BITMAP
00E0
01C0
0380
0000
0000
0FC0
3FF0
7878
7038
E01C
E01C
E01C
E01C
E01C
E01C
E01C
E01C
E01C
E01C
7038
7878
3FF0
0FC0
ENDCHAR

STARTCHAR Ocircumflex
ENCODING 212
SWIDTH 570 0
DWIDTH 16 0
BBX 14 24 1 0
BITMAP
0300
0780
0CC0
1860
0000
0000
0FC0
3FF0
7878
7038
E01C
E01C
E01C
E01C
E01C
E01C
E01C
E01C
E01C
E01C
7038
7878
3FF0
0FC0
ENDCHAR

STARTCHAR Otilde
ENCODING 213
SWIDTH 570 0
DWIDTH 16 0
BBX 14 24 1 0
BITMAP
0E20
1F60
1BE0
11C0
0000
0000
0FC0
3FF0
7878
7038
E01C
E01C
E01C
E01C
E01C
E01C
E01C
E01C
E01C
E01C
7038
7878
3FF0
0FC0
ENDCHAR

STARTCHAR Odieresis
ENCODING 214
SWIDTH 570 0
DWIDTH 16 0
BBX 14 22 1 0
BITMAP
0CC0
0CC0
0CC0
0000
0FC0
3FF0
7878
7038
E01C
E01C
E01C
E01C
E01C
E01C
E01C
E01C
E01C
E01C
7038
7878
3FF0
0FC0
ENDCHAR

STARTCHAR multiply
ENCODING 215
SWIDTH 570 0
DWIDTH 16 0
BBX 14 14 1 1
BITMAP
4008
E01C
7038
3870
1CE0
0FC0
0780
0780
0FC0
1CE0
3870
7038
E01C
4008
ENDCHAR

STARTCHAR Oslash
ENCODING 216
SWIDTH 570 0
DWIDTH 16 0
BBX 14 21 1 -2
BITMAP
0018
0FD8
3FF0
7878
7078
E0DC
E0DC
E19C
E19C
E31C
E31C
E61C
E61C
EC1C
EC1C
7838
7878
3FF0
6FC0
E000
4000
ENDCHAR

STARTCHAR Ugrave
ENCODING 217
SWIDTH 570 0
DWIDTH 16 0
BBX 14 23 1 0
BITMAP
0E00
0700
0380
0000
0000
F87C
F87C
7038
7038
7038
7038
7038
7038
7038
7038
7038
7038
7038
7038
7038
3870
3FF0
1FE0
ENDCHAR

STARTCHAR Uacute
ENCODING 218
SWIDTH 570 0
DWIDTH 16 0
BBX 14 23 1 0
BITMAP
00E0
01C0
0380
0000
0000
F87C
F87C
7038
7038
7038
7038
7038
7038
7038
7038
7038
7038
7038
7038
7038
3870
3FF0
1FE0
ENDCHAR

STARTCHAR Ucircumflex
ENCODING 219
SWIDTH 570 0
DWIDTH 16 0
BBX 14 24 1 0
BITMAP
0300
0780
0CC0
1860
0000
0000
F87C
F87C
7038
7038
7038
7038
7038
7038
7038
7038
7038
7038
7038
7038
7038
3870
3FF0
1FE0
ENDCHAR

STARTCHAR Udieresis
ENCODING 220
SWIDTH 570 0
DWIDTH 16 0
BBX 14 22 1 0
BITMAP
0CC0
0CC0
0CC0
0000
F87C
F87C
7038
7038
7038
7038
7038
7038
7038
7038
7038
7038
7038
7038
7038
3870
3FF0
1FE0
ENDCHAR

STARTCHAR Yacute
ENCODING 221
SWIDTH 570 0
DWIDTH 16 0
BBX 15 22 1 0
BITMAP
00E0
01C0
0380
0000
F01E
701C
3838
3830
1C70
1C60
0EE0
0EC0
07C0
0780
0380
0380
0380
0380
0380
0380
0380
07C0
ENDCHAR

STARTCHAR Thorn
ENCODING 222
SWIDTH 570 0
DWIDTH 16 0
BBX 13 18 2 0
BITMAP
F800
F800
7000
7FC0
7FF0
7070
7038
7038
7038
7038
7070
7FF0
7FC0
7000
7000
7000
F800
F800
ENDCHAR

STARTCHAR germandbls
ENCODING 223
SWIDTH 570 0
DWIDTH 16 0
BBX 14 18 1 0
BITMAP
0FC0
3FF0
7878
7038
7038
7030
7060
F1F0
F1F8
7038
701C
701C
701C
701C
7018
7638
F7F0
F1C0
ENDCHAR

STARTCHAR agrave
ENCODING 224
SWIDTH 570 0
DWIDTH 16 0
BBX 14 18 1 0
BITMAP
0E00
0700
0380
0000
0000
0FC0
3FF0
3870
0038
0038
1FF8
7FF8
F038
E038
E078
F0F8
7FDC
3F1C
ENDCHAR

STARTCHAR aacute
ENCODING 225
SWIDTH 570 0
DWIDTH 16 0
BBX 14 18 1 0
BITMAP
00E0
01C0
0380
0000
0000
0FC0
3FF0
3870
0038
0038
1FF8
7FF8
F038
E038
E078
F0F8
7FDC
3F1C
ENDCHAR

STARTCHAR acircumflex
ENCODING 226
SWIDTH 570 0
DWIDTH 16 0
BBX 14 18 1 0
BITMAP
0300
0780
0CC0
1860
0000
0FC0
3FF0
3870
0038
0038
1FF8
7FF8
F038
E038
E078
F0F8
7FDC
3F1C
ENDCHAR

STARTCHAR atilde
ENCODING 227
SWIDTH 570 0
DWIDTH 16 0
BBX 14 18 1 0
BITMAP
0E20
1FE0
11C0
0000
0000
0FC0
3FF0
3870
0038
0038
1FF8
7FF8
F038
E038
E078
F0F8
7FDC
3F1C
ENDCHAR

STARTCHAR adieresis
ENCODING 228
SWIDTH 570 0
DWIDTH 16 0
BBX 14 18 1 0
BITMAP
0CC0
0CC0
0CC0
0000
0000
0FC0
3FF0
3870
0038
0038
1FF8
7FF8
F038
E038
E078
F0F8
7FDC
3F1C
ENDCHAR

STARTCHAR aring
ENCODING 229
SWIDTH 570 0
DWIDTH 16 0
BBX 14 19 1 0
BITMAP
0780
0CC0
0CC0
0780
0000
0000
0FC0
3FF0
3870
0038
0038
1FF8
7FF8
F038
E038
E078
F0F8
7FDC
3F1C
ENDCHAR

STARTCHAR ae
ENCODING 230
SWIDTH 570 0
DWIDTH 16 0
BBX 16 13 0 0
BITMAP
3E3E
7F7F
63E7
01C3
01C7
1FFF
7FFE
71C0
E1C0
E1C1
F3E3
7FFF
3E7E
ENDCHAR

STARTCHAR ccedilla
ENCODING 231
SWIDTH 570 0
DWIDTH 16 0
BBX 12 16 2 -3
BITMAP
0FE0
3FF0
7870
7030
E000
E000
E000
E000
E000
7030
7870
3FF0
0FC0
0300
0300
0600
ENDCHAR

STARTCHAR egrave
ENCODING 232
SWIDTH 570 0
DWIDTH 16 0
BBX 12 18 2 0
BITMAP
1C00
0E00
0700
0000
0000
0F80
3FE0
70F0
E070
E070
FFF0
FFE0
E000
E000
F030
7870
7FE0
1F80
ENDCHAR

STARTCHAR eacute
ENCODING 233
SWIDTH 570 0
DWIDTH 16 0
BBX 12 18 2 0
BITMAP
01C0
0380
0700
0000
0000
0F80
3FE0
70F0
E070
E070
FFF0
FFE0
E000
E000
F030
7870
7FE0
1F80
ENDCHAR

STARTCHAR ecircumflex
ENCODING 234
SWIDTH 570 0
DWIDTH 16 0
BBX 12 18 2 0
BITMAP
0600
0F00
1980
30C0
0000
0F80
3FE0
70F0
E070
E070
FFF0
FFE0
E000
E000
F030
7870
7FE0
1F80
ENDCHAR

STARTCHAR edieresis
ENCODING 235
SWIDTH 570 0
DWIDTH 16 0
BBX 12 18 2 0
BITMAP
1980
1980
1980
0000
0000
0F80
3FE0
70F0
E070
E070
FFF0
FFE0
E000
E000
F030
7870
7FE0
1F80
ENDCHAR

STARTCHAR igrave
ENCODING 236
SWIDTH 570 0
DWIDTH 16 0
BBX 12 18 2 0
BITMAP
1C00
0E00
0700
0000
0000
0700
FF00
FF00
0700
0700
0700
0700
0700
0700
0700
0700
FFF0
FFF0
ENDCHAR

STARTCHAR iacute
ENCODING 237
SWIDTH 570 0
DWIDTH 16 0
BBX 12 18 2 0
BITMAP
01C0
0380
0700
0000
0000
0700
FF00
FF00
0700
0700
0700
0700
0700
0700
0700
0700
FFF0
FFF0
ENDCHAR

STARTCHAR icircumflex
ENCODING 238
SWIDTH 570 0
DWIDTH 16 0
BBX 12 18 2 0
BITMAP
0600
0F00
1980
30C0
0000
0700
FF00
FF00
0700
0700
0700
0700
0700
0700
0700
0700
FFF0
FFF0
ENDCHAR

STARTCHAR idieresis
ENCODING 239
SWIDTH 570 0
DWIDTH 16 0
BBX 12 18 2 0
BITMAP
18C0
18C0
18C0
0000
0000
0700
FF00
FF00
0700
0700
0700
0700
0700
0700
0700
0700
FFF0
FFF0
ENDCHAR

STARTCHAR eth
ENCODING 240
SWIDTH 570 0
DWIDTH 16 0
BBX 14 20 1 0
BITMAP
78E0
3DC0
1F00
0F00
3F80
73C0
01E0
0FE0
3FF0
7878
7038
E01C
E01C
E01C
E01C
E01C
7038
7878
3FF0
0FC0
ENDCHAR

STARTCHAR ntilde
ENCODING 241
SWIDTH 570 0
DWIDTH 16 0
BBX 14 18 1 0
BITMAP
0E20
1FE0
11C0
0000
0000
77E0
FFF0
F878
7038
7038
7038
7038
7038
7038
7038
7038
F83C
F83C
ENDCHAR

STARTCHAR ograve
ENCODING 242
SWIDTH 570 0
DWIDTH 16 0
BBX 14 18 1 0
BITMAP
0E00
0700
0380
0000
0000
0FC0
3FF0
7878
7038
E01C
E01C
E01C
E01C
E01C
7038
7878
3FF0
0FC0
ENDCHAR

STARTCHAR oacute
ENCODING 243
SWIDTH 570 0
DWIDTH 16 0
BBX 14 18 1 0
BITMAP
00E0
01C0
0380
0000
0000
0FC0
3FF0
7878
7038
E01C
E01C
E01C
E01C
E01C
7038
7878
3FF0
0FC0
ENDCHAR

STARTCHAR ocircumflex
ENCODING 244
SWIDTH 570 0
DWIDTH 16 0
BBX 14 18 1 0
BITMAP
0300
0780
0CC0
1860
0000
0FC0
3FF0
7878
7038
E01C
E01C
E01C
E01C
E01C
7038
7878
3FF0
0FC0
ENDCHAR

STARTCHAR otilde
ENCODING 245
SWIDTH 570 0
DWIDTH 16 0
BBX 14 18 1 0
BITMAP
0E20
1FE0
11C0
0000
0000
0FC0
3FF0
7878
7038
E01C
E01C
E01C
E01C
E01C
7038
7878
3FF0
0FC0
ENDCHAR

STARTCHAR odieresis
ENCODING 246
SWIDTH 570 0
DWIDTH 16 0
BBX 14 18 1 0
BITMAP
0CC0
0CC0
0CC0
0000
0000
0FC0
3FF0
7878
7038
E01C
E01C
E01C
E01C
E01C
7038
7878
3FF0
0FC0
ENDCHAR

STARTCHAR divide
ENCODING 247
SWIDTH 570 0
DWIDTH 16 0
BBX 12 12 2 3
BITMAP
0600
0600
0600
0000
0000
FFF0
FFF0
0000
0000
0600
0600
0600
ENDCHAR

STARTCHAR oslash
ENCODING 248
SWIDTH 570 0
DWIDTH 16 0
BBX 14 15 1 -1
BITMAP
000C
0FDC
3FF8
7870
70F8
E1DC
E39C
E71C
EE1C
FC1C
7838
3878
7FF0
EFC0
C000
ENDCHAR

STARTCHAR ugrave
ENCODING 249
SWIDTH 570 0
DWIDTH 16 0
BBX 14 18 1 0
BITMAP
0E00
0700
0380
0000
0000
F078
F078
7038
7038
7038
7038
7038
7038
7038
7038
7878
3FFC
1FBC
ENDCHAR

STARTCHAR uacute
ENCODING 250
SWIDTH 570 0
DWIDTH 16 0
BBX 14 18 1 0
BITMAP
01C0
0380
0700
0000
0000
F078
F078
7038
7038
7038
7038
7038
7038
7038
7038
7878
3FFC
1FBC
ENDCHAR

STARTCHAR ucircumflex
ENCODING 251
SWIDTH 570 0
DWIDTH 16 0
BBX 14 19 1 0
BITMAP
0300
0780
0CC0
1860
0000
0000
F078
F078
7038
7038
7038
7038
7038
7038
7038
7038
7878
3FFC
1FBC
ENDCHAR

STARTCHAR udieresis
ENCODING 252
SWIDTH 570 0
DWIDTH 16 0
BBX 14 18 1 0
BITMAP
18C0
18C0
18C0
0000
0000
F078
F078
7038
7038
7038
7038
7038
7038
7038
7038
7878
3FFC
1FBC
ENDCHAR

STARTCHAR yacute
ENCODING 253
SWIDTH 570 0
DWIDTH 16 0
BBX 16 22 0 -4
BITMAP
0038
0070
00E0
01C0
0000
F007
780F
380E
1C1C
1C1C
0E38
0E38
0670
0770
03E0
03E0
01C0
0380
0380
0700
0E00
0E00
ENDCHAR

STARTCHAR thorn
ENCODING 254
SWIDTH 570 0
DWIDTH 16 0
BBX 14 22 1 -4
BITMAP
F000
F000
7000
7000
7000
77C0
7FF0
7878
7038
701C
701C
701C
701C
701C
7038
7878
7FF0
77E0
7000
7000
F800
F800
ENDCHAR

STARTCHAR ydieresis
ENCODING 255
SWIDTH 570 0
DWIDTH 16 0
BBX 16 22 0 -4
BITMAP
0C30
0C30
0C30
0000
0000
F007
780F
380E
1C1C
1C1C
0E38
0E38
0670
0770
03E0
03E0
01C0
0380
0380
0700
0E00
0E00
ENDCHAR
ENDFONT
